<mxfile host="app.diagrams.net" modified="2024-05-16T16:58:47.402Z" agent="Mozilla/5.0 (Macintosh; Intel Mac OS X 10_15_7) AppleWebKit/605.1.15 (KHTML, like Gecko) Version/17.4.1 Safari/605.1.15" etag="KF16ikuAYzsa0sCCvG9N" version="24.3.1" type="device">
  <diagram name="Pagina-1" id="HjIBQddtPdYiBKTeZB5s">
    <mxGraphModel dx="1513" dy="756" grid="1" gridSize="10" guides="1" tooltips="1" connect="1" arrows="1" fold="1" page="1" pageScale="1" pageWidth="827" pageHeight="1169" math="0" shadow="0">
      <root>
        <mxCell id="0" />
        <mxCell id="1" parent="0" />
        <mxCell id="zaUc6QDHWwnIjYbhZ3Wp-16" value="Tecnico" style="whiteSpace=wrap;html=1;align=center;" vertex="1" parent="1">
          <mxGeometry x="600" y="160" width="100" height="40" as="geometry" />
        </mxCell>
        <mxCell id="zaUc6QDHWwnIjYbhZ3Wp-17" value="Richiesta" style="whiteSpace=wrap;html=1;align=center;" vertex="1" parent="1">
          <mxGeometry x="260" y="160" width="100" height="40" as="geometry" />
        </mxCell>
        <mxCell id="zaUc6QDHWwnIjYbhZ3Wp-18" value="Ordine" style="whiteSpace=wrap;html=1;align=center;" vertex="1" parent="1">
          <mxGeometry x="255" y="480" width="100" height="40" as="geometry" />
        </mxCell>
        <mxCell id="zaUc6QDHWwnIjYbhZ3Wp-19" value="Proposta" style="whiteSpace=wrap;html=1;align=center;" vertex="1" parent="1">
          <mxGeometry x="260" y="310" width="100" height="40" as="geometry" />
        </mxCell>
        <mxCell id="zaUc6QDHWwnIjYbhZ3Wp-20" value="Categoria" style="whiteSpace=wrap;html=1;align=center;" vertex="1" parent="1">
          <mxGeometry x="260" y="20" width="100" height="40" as="geometry" />
        </mxCell>
        <mxCell id="zaUc6QDHWwnIjYbhZ3Wp-28" value="Ordinante" style="whiteSpace=wrap;html=1;align=center;" vertex="1" parent="1">
          <mxGeometry x="-30" y="160" width="100" height="40" as="geometry" />
        </mxCell>
        <mxCell id="zaUc6QDHWwnIjYbhZ3Wp-29" value="Amministratore" style="whiteSpace=wrap;html=1;align=center;" vertex="1" parent="1">
          <mxGeometry x="-240" y="100" width="100" height="40" as="geometry" />
        </mxCell>
        <mxCell id="zaUc6QDHWwnIjYbhZ3Wp-31" value="definisce" style="shape=rhombus;perimeter=rhombusPerimeter;whiteSpace=wrap;html=1;align=center;" vertex="1" parent="1">
          <mxGeometry x="120" y="155" width="90" height="50" as="geometry" />
        </mxCell>
        <mxCell id="zaUc6QDHWwnIjYbhZ3Wp-32" value="(sottopone)" style="shape=rhombus;perimeter=rhombusPerimeter;whiteSpace=wrap;html=1;align=center;" vertex="1" parent="1">
          <mxGeometry x="120" y="305" width="90" height="50" as="geometry" />
        </mxCell>
        <mxCell id="zaUc6QDHWwnIjYbhZ3Wp-33" value="definisce" style="shape=rhombus;perimeter=rhombusPerimeter;whiteSpace=wrap;html=1;align=center;" vertex="1" parent="1">
          <mxGeometry x="430" y="305" width="90" height="50" as="geometry" />
        </mxCell>
        <mxCell id="zaUc6QDHWwnIjYbhZ3Wp-34" value="assegna" style="shape=rhombus;perimeter=rhombusPerimeter;whiteSpace=wrap;html=1;align=center;" vertex="1" parent="1">
          <mxGeometry x="430" y="155" width="90" height="50" as="geometry" />
        </mxCell>
        <mxCell id="zaUc6QDHWwnIjYbhZ3Wp-35" value="" style="endArrow=none;html=1;rounded=0;exitX=1;exitY=0.5;exitDx=0;exitDy=0;entryX=0;entryY=0.5;entryDx=0;entryDy=0;" edge="1" parent="1" source="zaUc6QDHWwnIjYbhZ3Wp-28" target="zaUc6QDHWwnIjYbhZ3Wp-31">
          <mxGeometry width="50" height="50" relative="1" as="geometry">
            <mxPoint x="102.32" y="260.01571428571435" as="sourcePoint" />
            <mxPoint x="189.9977251184833" y="249.9954028436019" as="targetPoint" />
          </mxGeometry>
        </mxCell>
        <mxCell id="zaUc6QDHWwnIjYbhZ3Wp-42" value="1" style="edgeLabel;html=1;align=center;verticalAlign=middle;resizable=0;points=[];" vertex="1" connectable="0" parent="zaUc6QDHWwnIjYbhZ3Wp-35">
          <mxGeometry x="0.08" relative="1" as="geometry">
            <mxPoint x="-17" as="offset" />
          </mxGeometry>
        </mxCell>
        <mxCell id="zaUc6QDHWwnIjYbhZ3Wp-36" value="" style="endArrow=none;html=1;rounded=0;entryX=1;entryY=0.5;entryDx=0;entryDy=0;exitX=0;exitY=0.5;exitDx=0;exitDy=0;" edge="1" parent="1" source="zaUc6QDHWwnIjYbhZ3Wp-17" target="zaUc6QDHWwnIjYbhZ3Wp-31">
          <mxGeometry width="50" height="50" relative="1" as="geometry">
            <mxPoint x="140" y="330" as="sourcePoint" />
            <mxPoint x="190" y="280" as="targetPoint" />
          </mxGeometry>
        </mxCell>
        <mxCell id="zaUc6QDHWwnIjYbhZ3Wp-44" value="n" style="edgeLabel;html=1;align=center;verticalAlign=middle;resizable=0;points=[];" vertex="1" connectable="0" parent="zaUc6QDHWwnIjYbhZ3Wp-36">
          <mxGeometry x="-0.1943" y="2" relative="1" as="geometry">
            <mxPoint x="11" y="-2" as="offset" />
          </mxGeometry>
        </mxCell>
        <mxCell id="zaUc6QDHWwnIjYbhZ3Wp-37" value="" style="endArrow=none;html=1;rounded=0;entryX=1;entryY=0.5;entryDx=0;entryDy=0;exitX=0;exitY=0.5;exitDx=0;exitDy=0;" edge="1" parent="1" source="zaUc6QDHWwnIjYbhZ3Wp-34" target="zaUc6QDHWwnIjYbhZ3Wp-17">
          <mxGeometry width="50" height="50" relative="1" as="geometry">
            <mxPoint x="140" y="330" as="sourcePoint" />
            <mxPoint x="190" y="280" as="targetPoint" />
          </mxGeometry>
        </mxCell>
        <mxCell id="zaUc6QDHWwnIjYbhZ3Wp-46" value="1" style="edgeLabel;html=1;align=center;verticalAlign=middle;resizable=0;points=[];" vertex="1" connectable="0" parent="zaUc6QDHWwnIjYbhZ3Wp-37">
          <mxGeometry x="0.498" y="-3" relative="1" as="geometry">
            <mxPoint x="-7" y="3" as="offset" />
          </mxGeometry>
        </mxCell>
        <mxCell id="zaUc6QDHWwnIjYbhZ3Wp-39" value="" style="endArrow=none;html=1;rounded=0;entryX=1;entryY=0.5;entryDx=0;entryDy=0;exitX=0;exitY=0.5;exitDx=0;exitDy=0;" edge="1" parent="1" source="zaUc6QDHWwnIjYbhZ3Wp-16" target="zaUc6QDHWwnIjYbhZ3Wp-34">
          <mxGeometry width="50" height="50" relative="1" as="geometry">
            <mxPoint x="380" y="340" as="sourcePoint" />
            <mxPoint x="430" y="290" as="targetPoint" />
          </mxGeometry>
        </mxCell>
        <mxCell id="zaUc6QDHWwnIjYbhZ3Wp-47" value="1" style="edgeLabel;html=1;align=center;verticalAlign=middle;resizable=0;points=[];" vertex="1" connectable="0" parent="zaUc6QDHWwnIjYbhZ3Wp-39">
          <mxGeometry x="-0.4107" y="-2" relative="1" as="geometry">
            <mxPoint x="13" y="2" as="offset" />
          </mxGeometry>
        </mxCell>
        <mxCell id="zaUc6QDHWwnIjYbhZ3Wp-40" value="" style="endArrow=none;html=1;rounded=0;entryX=0.5;entryY=1;entryDx=0;entryDy=0;exitX=1;exitY=0.5;exitDx=0;exitDy=0;" edge="1" parent="1" source="zaUc6QDHWwnIjYbhZ3Wp-33" target="zaUc6QDHWwnIjYbhZ3Wp-16">
          <mxGeometry width="50" height="50" relative="1" as="geometry">
            <mxPoint x="400" y="340" as="sourcePoint" />
            <mxPoint x="450" y="290" as="targetPoint" />
          </mxGeometry>
        </mxCell>
        <mxCell id="zaUc6QDHWwnIjYbhZ3Wp-41" value="" style="endArrow=none;html=1;rounded=0;entryX=0;entryY=0.5;entryDx=0;entryDy=0;exitX=1;exitY=0.5;exitDx=0;exitDy=0;" edge="1" parent="1" source="zaUc6QDHWwnIjYbhZ3Wp-19" target="zaUc6QDHWwnIjYbhZ3Wp-33">
          <mxGeometry width="50" height="50" relative="1" as="geometry">
            <mxPoint x="400" y="340" as="sourcePoint" />
            <mxPoint x="450" y="290" as="targetPoint" />
          </mxGeometry>
        </mxCell>
        <mxCell id="zaUc6QDHWwnIjYbhZ3Wp-48" value="" style="endArrow=none;html=1;rounded=0;entryX=0;entryY=0.5;entryDx=0;entryDy=0;exitX=1;exitY=0.5;exitDx=0;exitDy=0;" edge="1" parent="1" source="zaUc6QDHWwnIjYbhZ3Wp-32" target="zaUc6QDHWwnIjYbhZ3Wp-19">
          <mxGeometry width="50" height="50" relative="1" as="geometry">
            <mxPoint x="260" y="310" as="sourcePoint" />
            <mxPoint x="310" y="260" as="targetPoint" />
          </mxGeometry>
        </mxCell>
        <mxCell id="zaUc6QDHWwnIjYbhZ3Wp-52" value="associa" style="shape=rhombus;perimeter=rhombusPerimeter;whiteSpace=wrap;html=1;align=center;" vertex="1" parent="1">
          <mxGeometry x="265" y="80" width="90" height="50" as="geometry" />
        </mxCell>
        <mxCell id="zaUc6QDHWwnIjYbhZ3Wp-56" value="" style="endArrow=none;html=1;rounded=0;entryX=0.5;entryY=1;entryDx=0;entryDy=0;exitX=0.5;exitY=0;exitDx=0;exitDy=0;" edge="1" parent="1" source="zaUc6QDHWwnIjYbhZ3Wp-52" target="zaUc6QDHWwnIjYbhZ3Wp-20">
          <mxGeometry width="50" height="50" relative="1" as="geometry">
            <mxPoint x="280" y="300" as="sourcePoint" />
            <mxPoint x="330" y="250" as="targetPoint" />
          </mxGeometry>
        </mxCell>
        <mxCell id="zaUc6QDHWwnIjYbhZ3Wp-57" value="" style="endArrow=none;html=1;rounded=0;entryX=0.5;entryY=1;entryDx=0;entryDy=0;exitX=0.5;exitY=0;exitDx=0;exitDy=0;" edge="1" parent="1" source="zaUc6QDHWwnIjYbhZ3Wp-17" target="zaUc6QDHWwnIjYbhZ3Wp-52">
          <mxGeometry width="50" height="50" relative="1" as="geometry">
            <mxPoint x="280" y="300" as="sourcePoint" />
            <mxPoint x="330" y="250" as="targetPoint" />
          </mxGeometry>
        </mxCell>
        <mxCell id="zaUc6QDHWwnIjYbhZ3Wp-58" value="Caratteristica" style="whiteSpace=wrap;html=1;align=center;" vertex="1" parent="1">
          <mxGeometry x="-30" y="20" width="100" height="40" as="geometry" />
        </mxCell>
        <mxCell id="zaUc6QDHWwnIjYbhZ3Wp-59" value="contiene" style="shape=rhombus;perimeter=rhombusPerimeter;whiteSpace=wrap;html=1;align=center;" vertex="1" parent="1">
          <mxGeometry x="120" y="15" width="90" height="50" as="geometry" />
        </mxCell>
        <mxCell id="zaUc6QDHWwnIjYbhZ3Wp-60" value="" style="endArrow=none;html=1;rounded=0;entryX=0;entryY=0.5;entryDx=0;entryDy=0;exitX=1;exitY=0.5;exitDx=0;exitDy=0;" edge="1" parent="1" source="zaUc6QDHWwnIjYbhZ3Wp-59" target="zaUc6QDHWwnIjYbhZ3Wp-20">
          <mxGeometry width="50" height="50" relative="1" as="geometry">
            <mxPoint x="270" y="270" as="sourcePoint" />
            <mxPoint x="320" y="220" as="targetPoint" />
          </mxGeometry>
        </mxCell>
        <mxCell id="zaUc6QDHWwnIjYbhZ3Wp-61" value="" style="endArrow=none;html=1;rounded=0;entryX=1;entryY=0.5;entryDx=0;entryDy=0;exitX=0;exitY=0.5;exitDx=0;exitDy=0;" edge="1" parent="1" source="zaUc6QDHWwnIjYbhZ3Wp-59" target="zaUc6QDHWwnIjYbhZ3Wp-58">
          <mxGeometry width="50" height="50" relative="1" as="geometry">
            <mxPoint x="220" y="50" as="sourcePoint" />
            <mxPoint x="270" y="50" as="targetPoint" />
          </mxGeometry>
        </mxCell>
        <mxCell id="zaUc6QDHWwnIjYbhZ3Wp-62" value="" style="endArrow=none;html=1;rounded=0;entryX=0.5;entryY=1;entryDx=0;entryDy=0;exitX=0;exitY=0.5;exitDx=0;exitDy=0;" edge="1" parent="1" source="zaUc6QDHWwnIjYbhZ3Wp-32" target="zaUc6QDHWwnIjYbhZ3Wp-28">
          <mxGeometry width="50" height="50" relative="1" as="geometry">
            <mxPoint x="120" y="280" as="sourcePoint" />
            <mxPoint x="170" y="230" as="targetPoint" />
          </mxGeometry>
        </mxCell>
      </root>
    </mxGraphModel>
  </diagram>
</mxfile>
